<svg width="0" height="0" class="hidden">
  <svg version="1.1" id="icon_en" xmlns="http://www.w3.org/2000/svg"
    xmlns:xlink="http://www.w3.org/1999/xlink" x="0px" y="0px" enable-background="new 0 0 512 512"
    xml:space="preserve" viewBox="0 0 512 512">
    <rect y="0.2" fill="#F5F5F5" width="511.5" height="511.5"></rect>
    <path fill="#FF4B55" d="M0,393.7h512V433H0V393.7z M0,511.8h512v-39.3H0V511.8z M0,354.4h512V315H0V354.4z M275.4,0.2v39.3H512V0.2
	H275.4z M275.4,118.3H512V78.9H275.4V118.3z M275.4,197H512v-39.3H275.4V197z M275.4,275.4H512V236H275.4V275.4z"></path>
    <path fill="#41479B" d="M0,0.2v275.4h275.4V0.2H0z M44.6,244.1l-5.4,4l2,6.4c0.3,0.8-0.7,1.5-1.4,1l-5.5-3.9l-5.5,3.9
	c-0.7,0.5-1.6-0.2-1.4-1l2-6.4l-5.4-4c-0.7-0.5-0.3-1.6,0.5-1.6l6.7-0.1l2.1-6.4c0.3-0.8,1.4-0.8,1.7,0l2.1,6.4l6.7,0.1
	C44.9,242.5,45.3,243.6,44.6,244.1z M44.6,194.9l-5.4,4l2,6.4c0.3,0.8-0.7,1.5-1.4,1l-5.5-3.9l-5.5,3.9c-0.7,0.5-1.6-0.2-1.4-1
	l2-6.4l-5.4-4c-0.7-0.5-0.3-1.6,0.5-1.6l6.7-0.1l2.1-6.4c0.3-0.8,1.4-0.8,1.7,0l2.1,6.4l6.7,0.1C44.9,193.3,45.3,194.4,44.6,194.9z
	 M44.6,140.8l-5.4,4l2,6.4c0.3,0.8-0.7,1.5-1.4,1l-5.5-3.9l-5.5,3.9c-0.7,0.5-1.6-0.2-1.4-1l2-6.4l-5.4-4c-0.7-0.5-0.3-1.6,0.5-1.6
	l6.7-0.1l2.1-6.4c0.3-0.8,1.4-0.8,1.7,0l2.1,6.4l6.7,0.1C44.9,139.2,45.3,140.3,44.6,140.8z M44.6,81.9l-5.4,4l2,6.4
	c0.3,0.8-0.7,1.5-1.4,1l-5.5-3.9l-5.5,3.9c-0.7,0.5-1.6-0.2-1.4-1l2-6.4l-5.4-4c-0.7-0.5-0.3-1.6,0.5-1.6l6.7-0.1l2.1-6.4
	c0.3-0.8,1.4-0.8,1.7,0l2.1,6.4l6.7,0.1C44.9,80.3,45.3,81.4,44.6,81.9z M44.6,28.9l-5.4,4l2,6.4c0.3,0.8-0.7,1.5-1.4,1l-5.5-3.9
	l-5.5,3.9c-0.7,0.5-1.6-0.2-1.4-1l2-6.4l-5.4-4c-0.7-0.5-0.3-1.6,0.5-1.6l6.7-0.1l2.1-6.4c0.3-0.8,1.4-0.8,1.7,0l2.1,6.4l6.7,0.1
	C44.9,27.2,45.3,28.3,44.6,28.9z M70.4,219.1l-5.4,4l2,6.4c0.3,0.8-0.7,1.5-1.4,1l-5.5-3.9l-5.5,3.9c-0.7,0.5-1.6-0.2-1.4-1l2-6.4
	l-5.4-4c-0.7-0.5-0.3-1.6,0.5-1.6l6.7-0.1l2.1-6.4c0.3-0.8,1.4-0.8,1.7,0l2.1,6.4l6.7,0.1C70.8,217.4,71.1,218.5,70.4,219.1z
	 M70.4,168.8l-5.4,4l2,6.4c0.3,0.8-0.7,1.5-1.4,1l-5.5-3.9l-5.5,3.9c-0.7,0.5-1.6-0.2-1.4-1l2-6.4l-5.4-4c-0.7-0.5-0.3-1.6,0.5-1.6
	l6.7-0.1l2.1-6.4c0.3-0.8,1.4-0.8,1.7,0l2.1,6.4l6.7,0.1C70.8,167.2,71.1,168.3,70.4,168.8z M70.4,112.9l-5.4,4l2,6.4
	c0.3,0.8-0.7,1.5-1.4,1l-5.5-3.9l-5.5,3.9c-0.7,0.5-1.6-0.2-1.4-1l2-6.4l-5.4-4c-0.7-0.5-0.3-1.6,0.5-1.6l6.7-0.1l2.1-6.4
	c0.3-0.8,1.4-0.8,1.7,0l2.1,6.4l6.7,0.1C70.8,111.3,71.1,112.4,70.4,112.9z M70.4,54L65,58l2,6.4c0.3,0.8-0.7,1.5-1.4,1l-5.5-3.9
	l-5.5,3.9c-0.7,0.5-1.6-0.2-1.4-1l2-6.4L50,54c-0.7-0.5-0.3-1.6,0.5-1.6l6.7-0.1l2.1-6.4c0.3-0.8,1.4-0.8,1.7,0l2.1,6.4l6.7,0.1
	C70.8,52.4,71.1,53.5,70.4,54z M96.3,244.1l-5.4,4l2,6.4c0.3,0.8-0.7,1.5-1.4,1l-5.5-3.9l-5.5,3.9c-0.7,0.5-1.6-0.2-1.4-1l2-6.4
	l-5.4-4c-0.7-0.5-0.3-1.6,0.5-1.6l6.7-0.1l2.1-6.4c0.3-0.8,1.4-0.8,1.7,0l2.1,6.4l6.7,0.1C96.6,242.5,97,243.6,96.3,244.1z
	 M96.3,194.9l-5.4,4l2,6.4c0.3,0.8-0.7,1.5-1.4,1l-5.5-3.9l-5.5,3.9c-0.7,0.5-1.6-0.2-1.4-1l2-6.4l-5.4-4c-0.7-0.5-0.3-1.6,0.5-1.6
	l6.7-0.1l2.1-6.4c0.3-0.8,1.4-0.8,1.7,0l2.1,6.4l6.7,0.1C96.6,193.3,97,194.4,96.3,194.9z M96.3,140.8l-5.4,4l2,6.4
	c0.3,0.8-0.7,1.5-1.4,1l-5.5-3.9l-5.5,3.9c-0.7,0.5-1.6-0.2-1.4-1l2-6.4l-5.4-4c-0.7-0.5-0.3-1.6,0.5-1.6l6.7-0.1l2.1-6.4
	c0.3-0.8,1.4-0.8,1.7,0l2.1,6.4l6.7,0.1C96.6,139.2,97,140.3,96.3,140.8z M96.3,81.9l-5.4,4l2,6.4c0.3,0.8-0.7,1.5-1.4,1L86,89.4
	l-5.5,3.9c-0.7,0.5-1.6-0.2-1.4-1l2-6.4l-5.4-4c-0.7-0.5-0.3-1.6,0.5-1.6l6.7-0.1l2.1-6.4c0.3-0.8,1.4-0.8,1.7,0l2.1,6.4l6.7,0.1
	C96.6,80.3,97,81.4,96.3,81.9z M96.3,28.9l-5.4,4l2,6.4c0.3,0.8-0.7,1.5-1.4,1L86,36.3l-5.5,3.9c-0.7,0.5-1.6-0.2-1.4-1l2-6.4
	l-5.4-4c-0.7-0.5-0.3-1.6,0.5-1.6l6.7-0.1l2.1-6.4c0.3-0.8,1.4-0.8,1.7,0l2.1,6.4l6.7,0.1C96.6,27.2,97,28.3,96.3,28.9z
	 M122.1,219.1l-5.4,4l2,6.4c0.3,0.8-0.7,1.5-1.4,1l-5.5-3.9l-5.5,3.9c-0.7,0.5-1.6-0.2-1.4-1l2-6.4l-5.4-4c-0.7-0.5-0.3-1.6,0.5-1.6
	l6.7-0.1l2.1-6.4c0.3-0.8,1.4-0.8,1.7,0l2.1,6.4l6.7,0.1C122.4,217.4,122.8,218.5,122.1,219.1z M122.1,168.8l-5.4,4l2,6.4
	c0.3,0.8-0.7,1.5-1.4,1l-5.5-3.9l-5.5,3.9c-0.7,0.5-1.6-0.2-1.4-1l2-6.4l-5.4-4c-0.7-0.5-0.3-1.6,0.5-1.6l6.7-0.1l2.1-6.4
	c0.3-0.8,1.4-0.8,1.7,0l2.1,6.4l6.7,0.1C122.4,167.2,122.8,168.3,122.1,168.8z M122.1,112.9l-5.4,4l2,6.4c0.3,0.8-0.7,1.5-1.4,1
	l-5.5-3.9l-5.5,3.9c-0.7,0.5-1.6-0.2-1.4-1l2-6.4l-5.4-4c-0.7-0.5-0.3-1.6,0.5-1.6l6.7-0.1l2.1-6.4c0.3-0.8,1.4-0.8,1.7,0l2.1,6.4
	l6.7,0.1C122.4,111.3,122.8,112.4,122.1,112.9z M122.1,54l-5.4,4l2,6.4c0.3,0.8-0.7,1.5-1.4,1l-5.5-3.9l-5.5,3.9
	c-0.7,0.5-1.6-0.2-1.4-1l2-6.4l-5.4-4c-0.7-0.5-0.3-1.6,0.5-1.6l6.7-0.1L111,46c0.3-0.8,1.4-0.8,1.7,0l2.1,6.4l6.7,0.1
	C122.4,52.4,122.8,53.5,122.1,54z M147.9,244.1l-5.4,4l2,6.4c0.3,0.8-0.7,1.5-1.4,1l-5.5-3.9l-5.5,3.9c-0.7,0.5-1.6-0.2-1.4-1l2-6.4
	l-5.4-4c-0.7-0.5-0.3-1.6,0.5-1.6l6.7-0.1l2.1-6.4c0.3-0.8,1.4-0.8,1.7,0l2.1,6.4l6.7,0.1C148.3,242.5,148.6,243.6,147.9,244.1z
	 M147.9,194.9l-5.4,4l2,6.4c0.3,0.8-0.7,1.5-1.4,1l-5.5-3.9l-5.5,3.9c-0.7,0.5-1.6-0.2-1.4-1l2-6.4l-5.4-4c-0.7-0.5-0.3-1.6,0.5-1.6
	l6.7-0.1l2.1-6.4c0.3-0.8,1.4-0.8,1.7,0l2.1,6.4l6.7,0.1C148.3,193.3,148.6,194.4,147.9,194.9z M147.9,140.8l-5.4,4l2,6.4
	c0.3,0.8-0.7,1.5-1.4,1l-5.5-3.9l-5.5,3.9c-0.7,0.5-1.6-0.2-1.4-1l2-6.4l-5.4-4c-0.7-0.5-0.3-1.6,0.5-1.6l6.7-0.1l2.1-6.4
	c0.3-0.8,1.4-0.8,1.7,0l2.1,6.4l6.7,0.1C148.3,139.2,148.6,140.3,147.9,140.8z M147.9,81.9l-5.4,4l2,6.4c0.3,0.8-0.7,1.5-1.4,1
	l-5.5-3.9l-5.5,3.9c-0.7,0.5-1.6-0.2-1.4-1l2-6.4l-5.4-4c-0.7-0.5-0.3-1.6,0.5-1.6l6.7-0.1l2.1-6.4c0.3-0.8,1.4-0.8,1.7,0l2.1,6.4
	l6.7,0.1C148.3,80.3,148.6,81.4,147.9,81.9z M147.9,28.9l-5.4,4l2,6.4c0.3,0.8-0.7,1.5-1.4,1l-5.5-3.9l-5.5,3.9
	c-0.7,0.5-1.6-0.2-1.4-1l2-6.4l-5.4-4c-0.7-0.5-0.3-1.6,0.5-1.6l6.7-0.1l2.1-6.4c0.3-0.8,1.4-0.8,1.7,0l2.1,6.4l6.7,0.1
	C148.3,27.2,148.6,28.3,147.9,28.9z M173.8,219.1l-5.4,4l2,6.4c0.3,0.8-0.7,1.5-1.4,1l-5.5-3.9l-5.5,3.9c-0.7,0.5-1.6-0.2-1.4-1
	l2-6.4l-5.4-4c-0.7-0.5-0.3-1.6,0.5-1.6l6.7-0.1l2.1-6.4c0.3-0.8,1.4-0.8,1.7,0l2.1,6.4l6.7,0.1
	C174.1,217.4,174.5,218.5,173.8,219.1z M173.8,168.8l-5.4,4l2,6.4c0.3,0.8-0.7,1.5-1.4,1l-5.5-3.9l-5.5,3.9c-0.7,0.5-1.6-0.2-1.4-1
	l2-6.4l-5.4-4c-0.7-0.5-0.3-1.6,0.5-1.6l6.7-0.1l2.1-6.4c0.3-0.8,1.4-0.8,1.7,0l2.1,6.4l6.7,0.1
	C174.1,167.2,174.5,168.3,173.8,168.8z M173.8,112.9l-5.4,4l2,6.4c0.3,0.8-0.7,1.5-1.4,1l-5.5-3.9l-5.5,3.9c-0.7,0.5-1.6-0.2-1.4-1
	l2-6.4l-5.4-4c-0.7-0.5-0.3-1.6,0.5-1.6l6.7-0.1l2.1-6.4c0.3-0.8,1.4-0.8,1.7,0l2.1,6.4l6.7,0.1
	C174.1,111.3,174.5,112.4,173.8,112.9z M173.8,54l-5.4,4l2,6.4c0.3,0.8-0.7,1.5-1.4,1l-5.5-3.9l-5.5,3.9c-0.7,0.5-1.6-0.2-1.4-1
	l2-6.4l-5.4-4c-0.7-0.5-0.3-1.6,0.5-1.6l6.7-0.1l2.1-6.4c0.3-0.8,1.4-0.8,1.7,0l2.1,6.4l6.7,0.1C174.1,52.4,174.5,53.5,173.8,54z
	 M199.6,244.1l-5.4,4l2,6.4c0.3,0.8-0.7,1.5-1.4,1l-5.5-3.9l-5.5,3.9c-0.7,0.5-1.6-0.2-1.4-1l2-6.4l-5.4-4c-0.7-0.5-0.3-1.6,0.5-1.6
	l6.7-0.1l2.1-6.4c0.3-0.8,1.4-0.8,1.7,0l2.1,6.4l6.7,0.1C200,242.5,200.3,243.6,199.6,244.1z M199.6,194.9l-5.4,4l2,6.4
	c0.3,0.8-0.7,1.5-1.4,1l-5.5-3.9l-5.5,3.9c-0.7,0.5-1.6-0.2-1.4-1l2-6.4l-5.4-4c-0.7-0.5-0.3-1.6,0.5-1.6l6.7-0.1l2.1-6.4
	c0.3-0.8,1.4-0.8,1.7,0l2.1,6.4l6.7,0.1C200,193.3,200.3,194.4,199.6,194.9z M199.6,140.8l-5.4,4l2,6.4c0.3,0.8-0.7,1.5-1.4,1
	l-5.5-3.9l-5.5,3.9c-0.7,0.5-1.6-0.2-1.4-1l2-6.4l-5.4-4c-0.7-0.5-0.3-1.6,0.5-1.6l6.7-0.1l2.1-6.4c0.3-0.8,1.4-0.8,1.7,0l2.1,6.4
	l6.7,0.1C200,139.2,200.3,140.3,199.6,140.8z M199.6,81.9l-5.4,4l2,6.4c0.3,0.8-0.7,1.5-1.4,1l-5.5-3.9l-5.5,3.9
	c-0.7,0.5-1.6-0.2-1.4-1l2-6.4l-5.4-4c-0.7-0.5-0.3-1.6,0.5-1.6l6.7-0.1l2.1-6.4c0.3-0.8,1.4-0.8,1.7,0l2.1,6.4l6.7,0.1
	C200,80.3,200.3,81.4,199.6,81.9z M199.6,28.9l-5.4,4l2,6.4c0.3,0.8-0.7,1.5-1.4,1l-5.5-3.9l-5.5,3.9c-0.7,0.5-1.6-0.2-1.4-1l2-6.4
	l-5.4-4c-0.7-0.5-0.3-1.6,0.5-1.6l6.7-0.1l2.1-6.4c0.3-0.8,1.4-0.8,1.7,0l2.1,6.4l6.7,0.1C200,27.2,200.3,28.3,199.6,28.9z
	 M225.5,219.1l-5.4,4l2,6.4c0.3,0.8-0.7,1.5-1.4,1l-5.5-3.9l-5.5,3.9c-0.7,0.5-1.6-0.2-1.4-1l2-6.4l-5.4-4c-0.7-0.5-0.3-1.6,0.5-1.6
	l6.7-0.1l2.1-6.4c0.3-0.8,1.4-0.8,1.7,0l2.1,6.4l6.7,0.1C225.8,217.4,226.2,218.5,225.5,219.1z M225.5,168.8l-5.4,4l2,6.4
	c0.3,0.8-0.7,1.5-1.4,1l-5.5-3.9l-5.5,3.9c-0.7,0.5-1.6-0.2-1.4-1l2-6.4l-5.4-4c-0.7-0.5-0.3-1.6,0.5-1.6l6.7-0.1l2.1-6.4
	c0.3-0.8,1.4-0.8,1.7,0l2.1,6.4l6.7,0.1C225.8,167.2,226.2,168.3,225.5,168.8z M225.5,112.9l-5.4,4l2,6.4c0.3,0.8-0.7,1.5-1.4,1
	l-5.5-3.9l-5.5,3.9c-0.7,0.5-1.6-0.2-1.4-1l2-6.4l-5.4-4c-0.7-0.5-0.3-1.6,0.5-1.6l6.7-0.1l2.1-6.4c0.3-0.8,1.4-0.8,1.7,0l2.1,6.4
	l6.7,0.1C225.8,111.3,226.2,112.4,225.5,112.9z M225.5,54l-5.4,4l2,6.4c0.3,0.8-0.7,1.5-1.4,1l-5.5-3.9l-5.5,3.9
	c-0.7,0.5-1.6-0.2-1.4-1l2-6.4l-5.4-4c-0.7-0.5-0.3-1.6,0.5-1.6l6.7-0.1l2.1-6.4c0.3-0.8,1.4-0.8,1.7,0l2.1,6.4l6.7,0.1
	C225.8,52.4,226.2,53.5,225.5,54z M251.3,244.1l-5.4,4l2,6.4c0.3,0.8-0.7,1.5-1.4,1l-5.5-3.9l-5.5,3.9c-0.7,0.5-1.6-0.2-1.4-1l2-6.4
	l-5.4-4c-0.7-0.5-0.3-1.6,0.5-1.6l6.7-0.1l2.1-6.4c0.3-0.8,1.4-0.8,1.7,0l2.1,6.4l6.7,0.1C251.6,242.5,252,243.6,251.3,244.1z
	 M251.3,194.9l-5.4,4l2,6.4c0.3,0.8-0.7,1.5-1.4,1l-5.5-3.9l-5.5,3.9c-0.7,0.5-1.6-0.2-1.4-1l2-6.4l-5.4-4c-0.7-0.5-0.3-1.6,0.5-1.6
	l6.7-0.1l2.1-6.4c0.3-0.8,1.4-0.8,1.7,0l2.1,6.4l6.7,0.1C251.6,193.3,252,194.4,251.3,194.9z M251.3,140.8l-5.4,4l2,6.4
	c0.3,0.8-0.7,1.5-1.4,1l-5.5-3.9l-5.5,3.9c-0.7,0.5-1.6-0.2-1.4-1l2-6.4l-5.4-4c-0.7-0.5-0.3-1.6,0.5-1.6l6.7-0.1l2.1-6.4
	c0.3-0.8,1.4-0.8,1.7,0l2.1,6.4l6.7,0.1C251.6,139.2,252,140.3,251.3,140.8z M251.3,81.9l-5.4,4l2,6.4c0.3,0.8-0.7,1.5-1.4,1
	l-5.5-3.9l-5.5,3.9c-0.7,0.5-1.6-0.2-1.4-1l2-6.4l-5.4-4c-0.7-0.5-0.3-1.6,0.5-1.6l6.7-0.1l2.1-6.4c0.3-0.8,1.4-0.8,1.7,0l2.1,6.4
	l6.7,0.1C251.6,80.3,252,81.4,251.3,81.9z M251.3,28.9l-5.4,4l2,6.4c0.3,0.8-0.7,1.5-1.4,1l-5.5-3.9l-5.5,3.9
	c-0.7,0.5-1.6-0.2-1.4-1l2-6.4l-5.4-4c-0.7-0.5-0.3-1.6,0.5-1.6l6.7-0.1l2.1-6.4c0.3-0.8,1.4-0.8,1.7,0l2.1,6.4l6.7,0.1
	C251.6,27.2,252,28.3,251.3,28.9z"></path>
  </svg>

  <svg xmlns="http://www.w3.org/2000/svg" id="icon_vi" viewBox="0 0 512 512">
    <defs>
      <clipPath id="a">
        <path fill-opacity=".7" d="M177.2 0h708.6v708.7H177.2z"></path>
      </clipPath>
    </defs>
    <g fill-rule="evenodd" clip-path="url(#a)" transform="translate(-128) scale(.72249)">
      <path fill="#da251d" d="M0 0h1063v708.7H0z"></path>
      <path fill="#ff0"
        d="m661 527.5-124-92.6-123.3 93.5 45.9-152-123.2-93.8 152.4-1.3L536 129.8 584.3 281l152.4.2-122.5 94.7L661 527.5z"></path>
    </g>
  </svg>

  <svg color="currentColor" xmlns="http://www.w3.org/2000/svg" viewBox="0 0 24 24" id="icon_out">
    <g>
      <path d="M0 0h24v24H0z" fill="none"></path>
      <path
        d="M12 22C6.477 22 2 17.523 2 12S6.477 2 12 2a9.985 9.985 0 0 1 8 4h-2.71a8 8 0 1 0 .001 12h2.71A9.985 9.985 0 0 1 12 22zm7-6v-3h-8v-2h8V8l5 4-5 4z"></path>
    </g>
  </svg>

  <svg version="1.1" id="icon_day-night" xmlns="http://www.w3.org/2000/svg"
    xmlns:xlink="http://www.w3.org/1999/xlink" x="0px" y="0px" enable-background="new 0 0 384 384"
    xml:space="preserve" viewBox="0 0 384 384">
    <path d="M103.5,0c-0.1,10.7-0.3,21.5-0.3,32.2c0,0.8,1,1.9,1.8,2.3c6.6,2.6,13.2,5.1,20.3,7.8c7.3-7.3,15.2-15.3,22.8-22.9
	c5.6,5.5,10.8,10.7,16.2,16c-7.7,7.6-15.6,15.5-22.9,22.8c2.8,7.3,5.2,14,8,20.5c0.4,0.9,2.1,1.8,3.3,1.8c8.9,0.2,17.7,0.1,26.6,0.1
	c1.4,0,2.7,0,4.3,0c0,7.6,0,14.9,0,22.6c-11.4,0-22.6,0-33,0c-3.2,7.6-6.1,14.6-9.2,22.1c7.5,7.4,15.4,15.3,23.2,23
	c-5.6,5.5-10.7,10.7-16,15.9c-7.5-7.6-15.3-15.5-22.6-22.8c-7.6,2.9-14.4,5.3-21.2,8.1c-0.8,0.3-1.5,2.1-1.5,3.2
	c-0.1,8.9-0.1,17.7-0.1,26.6c0,1.4,0,2.7,0,4.3c-7.6,0-14.7,0-22.3,0c-0.1-1.3-0.2-2.6-0.2-4c0-8.9-0.1-17.7,0-26.6
	c0-2.3-0.6-3.3-3-4.1c-6.3-2.1-12.5-4.8-19.4-7.5c-7.3,7.4-15.2,15.4-22.9,23.1c-5.4-5.4-10.5-10.5-15.5-15.5
	c7.7-7.6,15.6-15.5,23.1-22.8c-3.4-8.2-6.4-15.2-9.8-23.3c-10.4,0-21.8,0-33.1,0c0-7.5,0-15,0-22.5c10.7,0.1,21.4,0.2,32.2,0.2
	c0.8,0,2-0.7,2.2-1.3c2.7-6.8,5.2-13.6,8.2-21.6c-7.2-7.1-15.2-14.9-22.8-22.2c5.3-5.3,10.4-10.4,16.1-16
	c7.6,7.6,15.5,15.5,22.8,22.9c7-2.6,13.6-5.1,20.1-7.7c0.8-0.3,1.7-1.5,1.7-2.3c0-10.7-0.1-21.4-0.3-32.1C88,0,95.8,0,103.5,0z
	 M92.1,55.5c-19.9-0.1-36.3,16.1-36.5,36c-0.2,20,16.3,36.6,36.3,36.6c19.8,0,36.3-16.4,36.3-36.2C128.2,72,111.9,55.6,92.1,55.5z
	 M285,384c-4.6-0.9-9.3-1.6-13.9-2.7c-37.6-9.3-62.6-38.7-67.4-77.1c-5.4-43.2,24.5-85.2,65.1-96c6.6-1.7,13.3-3,20.2-4.6
	c-11.7,33-5.1,61.4,20.9,83.8c21.9,18.9,47.4,21.2,74.1,10.4c0,0.5,0,1,0,1.5c-1,4-2.1,7.9-3,11.9c-7.8,32.7-26,56.6-58.5,68
	c-6.8,2.4-14,3.3-21,4.9C296,384,290.5,384,285,384z M262.2,235.3c-21.6,6.9-39.3,39.3-36.3,66.2c3.6,31.9,29.4,57.4,60.9,59.9
	c27.6,2.3,59.1-15.3,65.2-36.3C303.1,325,262.2,284.2,262.2,235.3z M55.2,314.4c4.9,4.9,10,10.1,14.6,14.6
	c86.4-86.4,173.1-173.1,259.7-259.7c-4.7-4.7-9.8-9.9-14.6-14.6C228.2,141.4,141.4,228.2,55.2,314.4z"></path>
  </svg>

  <svg version="1.1" id="icon_logo" xmlns="http://www.w3.org/2000/svg"
    xmlns:xlink="http://www.w3.org/1999/xlink" x="0px" y="0px" enable-background="new 0 0 281 281"
    xml:space="preserve" viewBox="0 0 281 281">
    <path d="M254.1,54.2c-17.9-17.3-39.3-27.8-64-31.4c-2.1,0-3.3-1.2-3.5-3.6C184.6,6.4,178.5,0,168.1,0
	c-5,0-9.2,2.6-12.7,7.7c-3.5,5.2-5.9,9.1-7.1,11.8c-1.7,3.3-3.3,5-5,5c-6.6,0.6-12.6,1.8-18,3.4c-5.4,1.7-9.6,3.1-12.4,4.3
	c-3.5,1.8-7,4.7-10.3,8.7c-3.3,3.9-5,8.7-5,14.1c0,6.1,1.4,11,4.1,14.8c2.7,3.8,5.5,4.6,8.3,2.5c2.8-2.4,6-4.8,9.6-7.1
	c3.5-2.3,7.5-3.7,12-4.3c2.8,0,3.7,1.5,2.5,4.6c-1.2,4.3-3.6,12.7-7.3,25.3c-1.1,3.8-2.2,7.7-3.3,11.7c-5-4.1-10.6-7.5-16.9-9.9
	C72,79.1,46.5,55.8,31.1,21.7c-0.7-1.5-0.6-3.8-3.3-4.2c-2.6,20.8,5,38.3,17.2,54.2C56.7,87,71.5,98.9,86.8,110
	c13.5,9.8,13.6,9.8,9.5,25.5c-0.5,2.1-1.1,4.2-1.5,6.3c-3.8,19.7-4.4,39.2,2,58.6c0.2,0.7,0.4,1.2,0.7,1.7c-0.2,1-0.3,1.9-0.5,2.8
	c-0.4,1.7-0.7,3.3-1,4.9c-0.9-2.6-2.2-5.1-2.6-6.4c-8.5-24.7-8.4-49.5-0.4-74.2c2.1-6.3,0.2-8.2-5-10.9C50.3,99,19.4,73.1,7,30.4
	c-0.5,0.1-0.9,0.2-1,0.3c-0.4,1-1,1.9-1.2,2.9c-4.8,21.2-1.6,41,10.7,59c12.9,18.8,30.7,31.8,50.8,42.1c1.9,1,4,1.8,5.7,3.1
	c1.7,1.3,1.5,3.6,0.7,5.3c-1,2.2-2.8,0.6-4.1,0.1c-25.1-11-47-25.8-61.5-49.8C4.9,89.8,3.1,86.1,0.4,81
	c-1.7,17.4,2.6,31.3,11.3,43.9c11,16,26.3,27.2,43.3,35.9c4.6,2.4,9.3,4.3,14,6.4c3.7,1.7,3.1,5.3,2.2,7.7c-1.1,2.8-3.7,0.4-5.4-0.3
	c-19.8-8.2-37.3-19.7-51.4-36c-3.5-4-6.5-8.5-10.8-14.1c0.5,3.6,0.7,5.4,1,7.1c0.4,2.1,0.8,4.3,1.4,6.3
	c7.8,26.6,26.7,43.9,48.7,58.8c5,3.4,31.4,21.1,38.8,21.1c0.4,0,0.7,0,1.1-0.1c-1.7,10.7-2.1,18.9-1.1,24.5
	c1.6,11.5,6.5,20.9,14.5,28c8,7.1,14.5,10.7,19.5,10.7c8.7,0,19.5-1.7,32.4-5c12.9-3.3,24.9-8.8,36.3-16.4
	c3.8-2.4,10.3-7.9,19.6-16.4c9.3-8.5,18.8-19.3,28.5-32.3c9.7-13.1,18.2-28.2,25.6-45.3c7.4-17.1,11.1-35.7,11.1-55.8
	C281,90,272,71.5,254.1,54.2z M230,160.5c-7.3,15.3-16,29.3-26,41.9c-10,12.6-20.2,22.8-30.6,30.7c-10.4,7.9-18.6,11.8-24.8,11.8
	c-3.5,0-7.1-2.7-10.6-8.2c-4-6.4-3.7-19.4,1.1-39.2c3.1-15.5,8.3-37.1,15.7-64.9c7.4-27.8,14-49.9,19.6-66.3
	c1.2-4.9,3.5-7.1,7.1-6.8c14.4,0.3,27.9,4.8,40.5,13.4c12.6,8.7,18.9,22.7,18.9,42.1C241,130.1,237.3,145.2,230,160.5z"></path>
  </svg>

  <svg id="icon_eye-slash" viewBox="0 0 12 6" xmlns="http://www.w3.org/2000/svg">
    <path
      d="M11.219 4.57032C11.169 4.59881 11.1139 4.61717 11.0568 4.62435C10.9997 4.63152 10.9418 4.62737 10.8863 4.61214C10.8309 4.5969 10.779 4.57087 10.7336 4.53554C10.6882 4.50021 10.6502 4.45628 10.6218 4.40625L9.58272 2.59063C8.97863 2.99908 8.31226 3.30678 7.60959 3.50172L7.93061 5.42782C7.94008 5.48452 7.93828 5.54253 7.92532 5.59854C7.91236 5.65455 7.88849 5.70745 7.85507 5.75423C7.82165 5.801 7.77934 5.84074 7.73056 5.87115C7.68177 5.90157 7.62747 5.92207 7.57076 5.93149C7.54744 5.93531 7.52385 5.93732 7.50022 5.9375C7.39672 5.93735 7.29662 5.90051 7.21772 5.83352C7.13882 5.76654 7.08623 5.67375 7.06928 5.57165L6.75373 3.68055C6.08829 3.77315 5.41323 3.77315 4.74779 3.68055L4.43225 5.57165C4.41527 5.67393 4.36251 5.76687 4.28339 5.83387C4.20426 5.90088 4.1039 5.93761 4.00022 5.9375C3.97603 5.9374 3.9519 5.93539 3.92803 5.93149C3.87132 5.92207 3.81702 5.90157 3.76824 5.87115C3.71945 5.84074 3.67714 5.801 3.64372 5.75423C3.6103 5.70745 3.58643 5.65455 3.57347 5.59854C3.56051 5.54253 3.55871 5.48452 3.56818 5.42782L3.89084 3.50172C3.18845 3.30616 2.52245 2.99791 1.91881 2.58899L0.883029 4.40625C0.825013 4.50735 0.729214 4.58125 0.616707 4.61171C0.504199 4.64217 0.3842 4.62669 0.283107 4.56868C0.182014 4.51066 0.108108 4.41486 0.0776481 4.30235C0.0471881 4.18985 0.0626689 4.06985 0.120685 3.96875L1.21444 2.05469C0.830255 1.72278 0.476984 1.3567 0.158966 0.960942C0.119306 0.916661 0.0890865 0.864762 0.0701514 0.808413C0.0512163 0.752064 0.0439632 0.692447 0.048835 0.633201C0.0537068 0.573956 0.0706012 0.516325 0.0984868 0.463826C0.126372 0.411327 0.164664 0.365062 0.211025 0.327854C0.257386 0.290646 0.310843 0.263277 0.368134 0.247416C0.425424 0.231555 0.485346 0.227536 0.544241 0.235604C0.603136 0.243672 0.65977 0.263658 0.710684 0.294341C0.761599 0.325025 0.805726 0.365762 0.840373 0.414067C1.74819 1.53735 3.33631 2.875 5.75022 2.875C8.16412 2.875 9.75225 1.53571 10.6601 0.414067C10.6943 0.364773 10.7383 0.323055 10.7894 0.291508C10.8405 0.259961 10.8975 0.239259 10.9569 0.230691C11.0163 0.222123 11.0768 0.225873 11.1347 0.241706C11.1926 0.257539 11.2467 0.285117 11.2934 0.322724C11.3402 0.360332 11.3788 0.407164 11.4067 0.460307C11.4346 0.513451 11.4513 0.571768 11.4557 0.631631C11.4601 0.691495 11.4521 0.751624 11.4323 0.808277C11.4124 0.86493 11.3812 0.916897 11.3404 0.960942C11.0224 1.3567 10.6691 1.72278 10.2849 2.05469L11.3787 3.96875C11.408 4.01865 11.4272 4.07387 11.435 4.13123C11.4429 4.18859 11.4393 4.24693 11.4244 4.30289C11.4096 4.35884 11.3838 4.41129 11.3485 4.4572C11.3132 4.5031 11.2692 4.54155 11.219 4.57032Z" />
  </svg>

  <svg version="1.1" id="icon_eye" xmlns="http://www.w3.org/2000/svg"
    xmlns:xlink="http://www.w3.org/1999/xlink" x="0px" y="0px"
    enable-background="new 0 0 409.6 409.6" xml:space="preserve" viewBox="0 0 409.6 409.6">
    <path d="M409.2,207.2c-2,3.3-3.6,6.8-6,9.8c-28.8,36.1-62.2,67-102.4,90.2c-26.4,15.2-54.7,25.5-85.4,27.5
	c-25,1.7-49.3-2.5-72.7-11.4c-35.3-13.4-65.7-34.7-93.4-59.9C33.2,248.5,18.3,232.4,4.8,215c-5.8-7.4-5.8-13.1,0-20.5
	c29-36.8,62.8-68.3,103.5-91.9c32-18.5,66.2-29.6,103.6-27.9c25.7,1.1,50,8.1,73,19.4c48.4,23.8,87.1,59.1,120.2,101
	c1.7,2.1,2.7,4.8,4,7.3C409.2,204,409.2,205.6,409.2,207.2z M30.9,204.5c1.5,1.8,2.5,3.2,3.7,4.4C47,221.6,58.9,235,72,246.9
	c25.3,23.1,53.5,41.9,86.3,53.1c19.6,6.7,39.8,9.5,60.5,7.2c26.5-2.9,50.6-12.8,73.3-26.3c29.5-17.7,54.7-40.4,77.5-65.9
	c3-3.3,5.8-6.8,9-10.5c-7.8-8.5-15.2-16.9-23-24.8C329.4,153,300.2,130,265.5,115c-17.3-7.5-35.3-12.4-54.3-13.3
	c-29-1.4-55.7,6.7-81.1,19.9c-28.4,14.7-53,34.5-75.3,57.1C46.6,187,38.9,195.8,30.9,204.5z M285.6,205.1
	c-0.3,44.8-36.8,80.9-81.3,80.4c-44.7-0.5-80.6-36.7-80.2-81.1c0.3-44.8,36.8-80.9,81.3-80.4C250,124.5,285.9,160.7,285.6,205.1z
	 M258.6,204.9c0.2-29.6-23.7-53.7-53.6-54c-29.6-0.3-54.2,24.2-54.1,53.9c0.1,29.7,24.1,53.8,53.8,53.8
	C234.3,258.7,258.5,234.7,258.6,204.9z"></path>
  </svg>

  <svg id="icon_success" xmlns="http://www.w3.org/2000/svg" version="1.1" viewBox="0 0 60 60">
    <path
      d="M30,0c-5.9,0-11.7,1.8-16.7,5.1-4.9,3.3-8.8,8-11,13.5C0,24-.6,30,.6,35.9c1.2,5.8,4,11.2,8.2,15.4,4.2,4.2,9.5,7.1,15.4,8.2,5.8,1.2,11.9.6,17.3-1.7,5.5-2.3,10.2-6.1,13.5-11,3.3-4.9,5.1-10.7,5.1-16.7,0-8-3.2-15.6-8.8-21.2C45.6,3.2,38,0,30,0ZM43.2,24.7l-16.2,16.2c-.2.2-.5.4-.7.5-.3.1-.6.2-.9.2s-.6,0-.9-.2c-.3-.1-.5-.3-.7-.5l-6.9-6.9c-.4-.4-.7-1-.7-1.6s.2-1.2.7-1.6c.4-.4,1-.7,1.6-.7s1.2.2,1.6.7l5.3,5.3,14.5-14.5c.2-.2.5-.4.7-.5.3-.1.6-.2.9-.2s.6,0,.9.2c.3.1.5.3.7.5.2.2.4.5.5.7.1.3.2.6.2.9s0,.6-.2.9c-.1.3-.3.5-.5.7Z" />
  </svg>

  <svg id="icon_error" xmlns="http://www.w3.org/2000/svg" version="1.1" viewBox="0 0 15.75 15.75">
    <path
      d="M7.44.02c6.31-.35,10.46,6.6,7.12,12-2.95,4.77-9.85,4.99-13.1.42C-2.13,7.39,1.29.37,7.44.02ZM7.72,3.67c-.35.05-.65.37-.69.71v4.28c.16.95,1.47.97,1.68.03-.08-1.37.12-2.89,0-4.25-.04-.51-.48-.85-.99-.78ZM7.69,10.31c-1.24.19-.87,2.22.43,1.87,1.14-.3.81-2.07-.43-1.87Z" />
  </svg>

  <svg id="icon_confirm" xmlns="http://www.w3.org/2000/svg" version="1.1" viewBox="0 0 384 384">
    <path
      d="M204.07,0l19.65,2.47c82.17,13.45,147.87,81.05,158.67,163.76.59,4.51.46,9.45,1.61,13.77v24c-1.16,4.32-1.01,9.26-1.61,13.77-10.97,82.8-76.37,150.23-158.67,163.76l-19.65,2.47h-23.99c-4.32-1.16-9.26-1.01-13.76-1.61C81.5,371.14,12.85,302.73,1.75,217.77c-.59-4.51-.46-9.45-1.61-13.77.34-7.93-.46-16.09,0-24C5.72,84.69,84.8,5.58,180.08,0h23.99ZM232.3,110.51c-20.62-20.62-71.77-20.7-88.07,5.5-5.59,8.98-7.07,22.06,4.59,26.64,14.74,5.79,15.13-7.88,23.81-13.98,9.96-7,34.06-6.04,38.23,7.41,5.84,18.82-16.85,27.8-26.67,38.66s-13.24,25.68-11.61,40.14c1.26,11.2,12.62,12.55,21.62,9.62s6.22-11.32,6.97-18.53c1.82-17.53,16.13-22.17,26.53-33.46,16.2-17.58,23.39-43.2,4.6-62ZM182.88,243.18c-22.68,3.64-19.43,39.83,4.28,38.84,26.44-1.1,23.46-43.29-4.28-38.84Z" />
  </svg>

  <svg id="icon_warning" xmlns="http://www.w3.org/2000/svg" version="1.1" viewBox="0 0 384 384">
    <path
      d="M378.01,326.97L216.77,26.99c-5.87-10.2-17.46-15.19-29.02-13.61-6.54.89-13.43,4.66-17.61,9.71C113.17,126.8,57.68,231.5,1.83,335.87c-6.97,17.08,6.96,33.82,24.21,35.03h332.1c22.97-2.37,33.33-24.8,19.86-43.93ZM188.57,85.41c11.44-1.82,20.64,5.35,21.78,16.74l-3.42,149.01c-1.82,11.56-15.02,16.91-24.35,9.59-7.83-6.14-5-18.89-5.35-27.77-1.52-38.18-2.72-76.83-3.38-115.03-.22-12.61-1.88-29.9,14.72-32.54ZM194.07,331.88c-25.49,2.43-29.78-36.01-5.48-39.44,28.36-4.01,31.14,37,5.48,39.44Z" />
  </svg>

  <svg version="1.1" id="icon_close" xmlns="http://www.w3.org/2000/svg"
    xmlns:xlink="http://www.w3.org/1999/xlink" x="0px" y="0px" enable-background="new 0 0 384 384"
    xml:space="preserve" viewBox="0 0 384 384">
    <path d="M191.7,208.2c-1.4,1.8-2.2,3.1-3.2,4.2C141,260,93.4,307.5,45.9,355.1c-3.7,3.7-7.7,6-13.1,4.5c-8.5-2.4-11.6-12.4-6-19.2
    c0.9-1.1,1.9-2,2.9-3C77,290,124.4,242.6,171.8,195.3c1-1,2.2-1.7,3.2-2.5c0.2-0.6,0.4-1.1,0.7-1.7c-1.3-0.8-2.8-1.3-3.9-2.3
    c-47.5-47.4-95-94.9-142.3-142.5c-2.3-2.3-4.1-5.8-4.6-9c-0.9-5,1.7-8.9,6.3-11.3c4.6-2.3,9-1.7,13,1.4c1.1,0.8,2,1.9,3,2.9
    c47.2,47.2,94.4,94.4,141.6,141.6c1,1,1.7,2.2,4.2,3.9c0.7-1.3,1.3-2.9,2.3-3.9c47.6-47.7,95.3-95.3,142.9-143c3.8-3.8,8-6,13.4-4.3
    c8.1,2.5,11.1,12.1,5.9,18.8c-1,1.3-2.2,2.4-3.4,3.5c-47.2,47.2-94.4,94.4-141.6,141.6c-1.1,1.1-2.2,2-3.6,3.2
    c1.3,1.4,2.3,2.4,3.3,3.5c47.6,47.5,95.2,95.1,142.6,142.7c2.3,2.3,4.2,5.4,5,8.5c1.3,4.7-1.5,9.6-5.7,12c-4.2,2.4-9.5,2.1-13.4-1
    c-1.2-0.9-2.2-2-3.3-3.1c-47.3-47.3-94.6-94.6-141.9-141.8C194.4,211.5,193.5,210.3,191.7,208.2z"></path>
  </svg>

  <svg id="icon_check" xmlns="http://www.w3.org/2000/svg" version="1.1" viewBox="0 0 7.7 6.3">
    <path
      d="M2.9,6.3c-.1,0-.3,0-.4-.1L0,3.7l.7-.7,2.1,2.1L7,0l.8.6L3.2,6.1c0,.1-.2.2-.4.2,0,0,0,0,0,0Z" />
  </svg>

  <svg version="1.1" id="icon_arrow" xmlns="http://www.w3.org/2000/svg"
    xmlns:xlink="http://www.w3.org/1999/xlink" x="0px" y="0px" viewBox="0 0 384 384"
    enable-background="new 0 0 384 384" xml:space="preserve">
		<path d="M251,192.2c-4.7-4.5-8.7-8.4-12.7-12.4C196,137.5,153.7,95.3,111.6,53c-2.1-2.2-3.9-5.3-4.5-8.3c-1-4.8,1.6-9,5.8-11.1
			c4.5-2.2,8.7-1.7,12.6,1.3c1,0.8,1.8,1.7,2.7,2.6c47.8,47.8,95.6,95.6,143.5,143.4c7.3,7.3,7.3,14.8,0,22.2
			C223.8,251,175.8,298.9,128,346.8c-3.6,3.6-7.4,6-12.6,4.5c-7.9-2.2-11.1-11.4-6.1-17.9c0.9-1.2,2-2.2,3.1-3.3
			c45.1-45.1,90.1-90.1,135.2-135.2C248.5,194.1,249.5,193.4,251,192.2z"/>
	</svg>

  <svg id="icon_calendar" xmlns="http://www.w3.org/2000/svg" version="1.1" viewBox="0 0 384 384">
    <path
      d="M106.5,0c2.5,1.6,5.7,2.3,7.8,4.6s4.2,6.8,4.2,7.8v16.9h147V12.4c0-1,3.3-6.8,4.2-7.8,2.1-2.2,5.3-3,7.8-4.6h6c4.8,1.3,12,7,12,12.4v16.9c10.8,0,21.9,0,32.4,2.5,25.2,6,46.4,26.8,53.3,51.7s1.7,8.4,2.8,12.6v221.2c-1.3,4.7-1.8,9.7-3.2,14.4-7.2,24.1-28.5,44-52.7,50-3.9,1-7.8,1.2-11.6,2.3H67.5c-3.8-1.1-7.7-1.3-11.6-2.3-23.7-6-44.5-25-52.2-48.3s-2.3-10.8-3.7-16.2V96c3.6-25.2,18.3-47.7,41.3-58.8,15-7.2,30.6-8.5,47.2-8V11.6c0-4.5,7.8-10.7,12-11.6h6ZM88.5,59.2h-16.1c-18.8,0-42.4,20.2-42.4,39.4v19.1h324v-19.1c0-19.2-23.7-39.4-42.4-39.4h-16.1v32.6c0,.3-1.9,4.5-2.4,5.1-5.8,8.9-19.5,8.9-25.3,0s-2.4-4.8-2.4-5.1v-32.6H118.5v31.9c0,.6-1.6,4.6-2.1,5.4-5.2,9.1-19.2,9.6-25.2.9s-2.7-5.1-2.7-5.6v-32.6ZM354,147.8H30v167.6c0,17.8,22.6,38.4,40.2,38.5h241.4c18.4,1,42.3-20.1,42.3-38.5v-167.6ZM87.4,310.5c6.9.8,26.2.8,32.9,0,17-2.3,17.2-27.9-.7-29.9-6.6-.7-27.3-.9-33.6.2-16.9,2.8-16.1,27.9,1.3,29.8ZM296.6,280.5c-6.6-.7-27.3-.9-33.6.2-15.9,2.7-16.2,26.3-.6,29.5,5.3,1.1,30,1.1,35.5.2,11.7-2,16.7-17.5,7.8-25.8s-6.4-3.7-9.1-4ZM264.4,222c6.9.8,26.2.8,32.9,0,17.3-2.4,17.5-28.3-1.4-30-7-.6-26.3-.9-32.9.2-16.6,2.8-16.2,27.9,1.3,29.8ZM87.4,222c6.9.8,26.2.8,32.9,0,17-2.3,17.1-27.9-.7-29.9-6.6-.7-27.3-.9-33.6.2-16.6,2.8-16.4,27.8,1.3,29.8ZM175.9,222c6.9.8,26.2.8,32.9,0,17-2.3,17-27.9-.7-29.9-6.6-.7-27.3-.9-33.6.2-16.9,2.8-16.1,27.9,1.3,29.8ZM175.9,310.5c6.9.8,26.2.8,32.9,0,16.8-2.3,17.4-28.3-1.4-30-7.3-.7-25.9-.9-32.8.2-16.8,2.6-16.2,27.8,1.3,29.8Z" />
  </svg>

  <svg version="1.1" id="icon_upload" xmlns="http://www.w3.org/2000/svg"
    xmlns:xlink="http://www.w3.org/1999/xlink" x="0px" y="0px" enable-background="new 0 0 330 306.2"
    xml:space="preserve" viewBox="0 0 330 306.2">
    <path d="M165,306.2c-34.5,0-69,0-103.5,0c-30.4,0-54.8-20.3-60.4-50.1c-0.9-4.6-0.9-9.4-1-14.2c-0.1-12.2-0.1-24.5,0-36.8
    c0.1-6.4,4.3-11.4,10-12.2c5.9-0.9,11.4,2.3,13.3,8c0.6,1.7,0.7,3.7,0.7,5.5c0.1,12.4,0,24.8,0,37.1c0,23.1,15.5,38.6,38.5,38.6
    c68.2,0,136.5,0,204.7,0c23,0,38.5-15.5,38.5-38.6c0-12.5,0-25,0-37.5c0-8.1,4.8-13.3,12-13.2c7,0.1,12,5.4,11.9,13.1
    c-0.1,15.5,0.6,31.1-0.7,46.5c-2.4,29.9-28.4,53.5-58.5,53.7C235.5,306.3,200.2,306.1,165,306.2C165,306.1,165,306.1,165,306.2z
     M153,41.9c0,1.4,0,2.7,0,4.1c0,56.6,0,113.3,0,169.9c0,1.2,0,2.5,0,3.7c0.3,6,5,10.9,10.9,11.4c6,0.5,11.7-3.7,12.8-9.7
    c0.3-1.6,0.2-3.2,0.2-4.9c0-56.9,0-113.8,0-170.6c0-1.3,0-2.6,0-4.7c1.6,1.5,2.6,2.4,3.5,3.3C195,59,209.5,73.5,224,88
    c5.6,5.6,13,6,18,1c4.9-4.9,4.6-12.4-1-18C218.9,49,196.8,26.9,174.7,4.8c-6.4-6.4-12.9-6.4-19.3,0c-21.9,21.8-43.7,43.6-65.6,65.4
    c-5.6,5.6-5.9,12.9-0.8,17.9c5,4.9,12.1,4.5,17.6-1c14.2-14.2,28.5-28.4,42.7-42.7c0.9-1,1.6-2.2,2.4-3.3
    C152.2,41.4,152.6,41.7,153,41.9z"></path>
  </svg>

  <svg version="1.1" id="icon_paste" xmlns="http://www.w3.org/2000/svg"
    xmlns:xlink="http://www.w3.org/1999/xlink" x="0px" y="0px" enable-background="new 0 0 384 384"
    xml:space="preserve" viewBox="0 0 384 384">
    <path d="M141,0c2.4,0.6,4.8,1.1,7.2,1.9c13.4,4.6,22.1,13.7,26.2,27.1c0.7,2.5,1.8,3.1,4.1,3c6.7-0.1,13.5-0.1,20.2,0
    c6.3,0.1,9.1,2.9,9.2,9.2c0,2.1,0,4.2,0,6.7c8.1,0,15.8,0,23.5,0c8.9,0,17,2.5,24.2,7.8c10.9,8.1,16.3,19.1,16.4,32.5
    c0.2,15.5,0.1,31,0,46.5c0,3.9-1.3,7.1-5.3,8.6c-3.3,1.3-6.5,0.6-8.4-2.1c-1.4-2-2.2-4.8-2.3-7.2c-0.2-14.6-0.1-29.2-0.1-43.9
    c0-16.5-9.8-26.3-26.4-26.3c-7,0-14,0-21.6,0c0,2.4,0,4.6,0,6.8C207.8,86,197.8,96,182.5,96c-31,0-62,0-93,0
    c-15.2,0-25.4-10.1-25.5-25.3c0-2.1,0-4.2,0-7.1C53.7,64,43.8,63.5,34.1,65C23.8,66.5,16.8,76,16,87c-0.1,1-0.1,2-0.1,3
    c0,68,0,136,0,203.9c0,12.7,6.6,22.2,17.8,25.1c3,0.8,6.2,1,9.3,1c40.4,0.1,80.7,0,121.1,0c1.4,0,2.8,0,4.1,0.1
    c4.5,0.3,7.9,3.7,7.8,8c-0.1,4.3-3.4,7.6-7.9,7.9c-1.4,0.1-2.7,0-4.1,0c-40.6,0-81.2-0.2-121.8,0.1c-23.5,0.2-39.3-16.7-41.5-33.7
    c0-0.3-0.4-0.6-0.6-0.9c0-73,0-146,0-219c0.2-0.7,0.6-1.3,0.7-2c1.7-8.2,5.4-15.3,11.4-21.1c7.7-7.4,17-11.3,27.7-11.4
    c8-0.1,15.9,0,24.1,0c0-2.2,0-3.9,0-5.6c0-7.7,2.7-10.3,10.4-10.3c7.4,0,14.7,0,22.2,0c0.4-1.1,0.7-2,1-3
    c3.9-12.7,12.1-21.6,24.5-26.5c2.7-1.1,5.7-1.7,8.5-2.6C134,0,137.5,0,141,0z M192,48c-8,0-15.5,0-22.9,0c-5.6,0-8.5-2.8-9.1-8.3
    c-0.2-1.7-0.2-3.5-0.6-5.2c-2.8-11.4-13.3-19.3-24.5-18.5c-12.4,0.9-21.3,9.7-22.7,22.4c-0.9,7.7-3,9.6-10.8,9.6c-7,0-13.9,0-21.2,0
    c0,7.3,0,14.1,0,21c0,8.7,2.4,11.1,11.2,11.1c29.9,0,59.7,0,89.6,0c1.5,0,3,0,4.5-0.2c3.9-0.7,6.6-3.5,6.7-7.4
    C192.1,64.4,192,56.4,192,48z M212.2,384c-2.1-0.8-4.3-1.3-6.3-2.3c-8.8-4.4-13.9-11.6-13.9-21.4c-0.1-58.9-0.1-117.7,0-176.6
    c0-13.1,10.2-23.5,23.7-23.6c33.2-0.3,66.5-0.2,99.7,0c11,0.1,20.4,4.4,28.1,12.2c9.4,9.4,18.7,18.8,28.1,28.1
    c6.8,6.6,10.4,14.8,12.3,23.9c0,46.5,0,93,0,139.5c-0.8,2.3-1.5,4.7-2.6,6.9c-3.6,7.5-10,11.3-17.7,13.4
    C313.2,384,262.8,384,212.2,384z M207.9,271.9c0,28.4,0,56.7,0,85.1c0,8.4,2.7,11,11,11c46.1,0,92.2,0,138.3,0
    c8.1,0,10.9-2.7,10.9-10.8c0-42,0-84,0-125.9c0-8.1-2.6-14.8-8.4-20.5c-8.9-8.6-17.6-17.4-26.2-26.2c-5.7-5.9-12.4-8.7-20.7-8.7
    c-31.4,0.2-62.7,0.1-94.1,0.1c-8.2,0-10.7,2.5-10.7,10.8C207.9,215.2,207.9,243.6,207.9,271.9z M251.1,255.9c-1.1,0-2.3-0.1-3.4,0.1
    c-4.6,0.5-7.8,3.8-7.7,8.1c0,4.2,3,7.3,7.5,7.9c1,0.1,2,0.1,3,0.1c25,0,49.9,0,74.9,0c1.4,0,2.8,0,4.1-0.3c3.9-0.8,6.4-3.9,6.5-7.6
    c0.1-3.9-2.6-7.1-6.6-7.9c-1.3-0.3-2.7-0.3-4.1-0.3c-12.4,0-24.7,0-37.1,0C275.8,255.9,263.5,255.9,251.1,255.9z M249.4,304
    c-5.7,0-9.3,3.2-9.4,8c0,4.8,3.5,8,9.3,8.1c1.6,0,3.2,0,4.9,0c23.2,0,46.4,0,69.6,0c0.9,0,1.7,0,2.6,0c6-0.1,9.6-3.3,9.6-8.2
    c-0.1-4.8-3.7-7.9-9.4-7.9c-12.9-0.1-25.7,0-38.6,0C275.1,303.9,262.2,303.9,249.4,304z"></path>
  </svg>

  <svg version="1.1" id="icon_search" xmlns="http://www.w3.org/2000/svg"
    xmlns:xlink="http://www.w3.org/1999/xlink" x="0px" y="0px"
    enable-background="new 0 0 491.5 491.5" xml:space="preserve" viewBox="0 0 491.5 491.5">
    <path d="M219.9,0.4c8.8,1.3,17.7,2.2,26.4,3.8c42.5,8.1,78.8,27.8,109.1,58.5c27.5,28,45.7,61.2,53.5,99.7
    c9.8,48.4,3,94.6-21.2,137.7c-7.8,13.8-17.6,26.5-26.5,39.7c-0.8,0.3-1.7,0.6-2.5,1c1.6,0.8,3.5,1.3,4.7,2.5
    c40.2,39.5,80.4,79,120.4,118.6c2.9,2.8,4.8,6.6,7.2,9.9c0,2.2,0,4.5,0,6.7c-5,10.7-12.6,14.8-21.4,11.3c-2.9-1.1-5.5-3.3-7.7-5.5
    c-40.5-39.7-80.8-79.5-121.2-119.2c-1.2-1.2-2.5-2.4-3.8-3.6c-6.5,4.4-12.7,9-19.1,13c-36.1,22.8-75.8,33.4-118.3,31.8
    c-56.1-2.1-103.9-23.7-143-64.1C27.1,311.9,9,275.6,2.9,233.8C-5,179.6,6.8,129.7,39.3,85.4c31.3-42.7,73.2-69.4,125-80.5
    c8.1-1.7,16.4-2.4,24.6-3.6c1.4-0.2,2.8-0.6,4.1-0.9C202,0.4,210.9,0.4,219.9,0.4z M32.1,202.5c0.4,7.1,0.4,13,1.1,18.9
    c4.4,37.1,18.5,69.9,44.3,97.1c45,47.6,100.7,65.5,164.5,53.1c55.9-10.9,97.7-43,122.5-94.8c25-52.2,23.5-104.9-4.5-155.3
    c-28.6-51.7-73.9-81.1-132.5-88.3c-46.3-5.7-88.9,5.6-126.2,33.8C56.2,101.2,33.7,147.3,32.1,202.5z"></path>
  </svg>

  <svg version="1.1" id="icon_double-arrow" xmlns="http://www.w3.org/2000/svg"
    xmlns:xlink="http://www.w3.org/1999/xlink" x="0px" y="0px" enable-background="new 0 0 384 384"
    xml:space="preserve" viewBox="0 0 384 384">
    <path d="M315.5,192.2c-4.7-4.5-8.7-8.4-12.7-12.4C260.6,137.5,218.3,95.3,176.2,53c-2.1-2.2-3.9-5.3-4.5-8.3c-1-4.8,1.6-9,5.8-11.1
    c4.5-2.2,8.7-1.7,12.6,1.3c1,0.8,1.8,1.7,2.7,2.6c47.8,47.8,95.6,95.6,143.5,143.4c7.3,7.3,7.3,14.8,0,22.2
    c-47.9,47.9-95.8,95.8-143.7,143.7c-3.6,3.6-7.4,6-12.6,4.5c-7.9-2.2-11.1-11.4-6.1-17.9c0.9-1.2,2-2.2,3.1-3.3
    c45.1-45.1,90.1-90.1,135.2-135.2C313,194.1,314.1,193.4,315.5,192.2z M182.8,195.1c-45.1,45.1-90.2,90.1-135.2,135.2
    c-1,1-2,1.9-2.8,3c-5.2,6.7-1.9,16.1,6.3,18.1c5.1,1.3,8.8-1.1,12.3-4.6c48-48,95.9-96.1,144.1-143.9c6-6,6.1-16-0.1-22.1
    c-48-47.6-95.7-95.5-143.6-143.3c-1.1-1.1-2.3-2.4-3.6-3.3c-3.8-2.6-7.9-2.9-12-0.6c-4.1,2.3-6.4,6-5.6,10.5
    c0.6,3.1,2.3,6.4,4.5,8.6c42.1,42.4,84.4,84.6,126.7,126.8c4,4,8,7.9,12.8,12.6C185,193.4,183.8,194.2,182.8,195.1z"></path>
  </svg>

  <svg id="icon_filter" xmlns="http://www.w3.org/2000/svg" viewBox="0 0 323.4 305.3">
    <path
      d="M289.5,0H34.7C20.1.1,9.2,6.7,3.2,20S-.3,45.9,9.5,56.7Q62.8,115.5,116.2,174a13.1,13.1,0,0,1,3.8,9.5c-.2,36.2-.1,72.4-.1,108.5,0,6.8,3.6,11.7,9.5,13s8.2-.9,11.7-3.6L198,255.8a14.6,14.6,0,0,0,5.8-12.2c-.2-20,0-39.9-.2-59.9a13.2,13.2,0,0,1,3.7-9.6q53.6-58.5,106.8-117.2A34.5,34.5,0,0,0,323.4,35C324.1,15.7,309,.1,289.5,0Zm6.2,41.3c-35.6,39.1-71,78.4-106.8,117.3-6.5,7.1-9.7,14.1-9.3,23.9.7,17.9.2,35.9.2,53.8,0,1.8-.1,3.3-1.7,4.6-11,8.8-22,17.6-32.9,26.5l-1.4.6v-3.9q0-44.1.1-88.3a16.5,16.5,0,0,0-4.6-11.7L27.9,41.4c-3.2-3.5-5-7.2-2.8-11.8s5.8-5.7,10.4-5.7q126.3.2,252.5,0c4.7,0,8.4,1.4,10.4,5.8S298.8,37.9,295.7,41.3Z"></path>
  </svg>

  <svg id="icon_filter-fill" xmlns="http://www.w3.org/2000/svg" viewBox="0 0 323.5 305.4">
    <path
      d="M289.5,0H34.7C20.1.1,9.2,6.7,3.2,20S-.3,45.9,9.5,56.7Q62.8,115.5,116.2,174a12.9,12.9,0,0,1,3.8,9.5c-.2,36.2-.1,72.4-.1,108.5,0,6.8,3.6,11.7,9.5,13s8.2-.9,11.7-3.6L198,255.8a14.6,14.6,0,0,0,5.8-12.2c-.2-20,0-39.9-.2-59.9a13.2,13.2,0,0,1,3.7-9.6q53.6-58.5,106.8-117.2A34.5,34.5,0,0,0,323.4,35C324.1,15.7,309,.1,289.5,0Z"
      transform="translate(0 0)"></path>
  </svg>

  <svg version="1.1" id="icon_sort" xmlns="http://www.w3.org/2000/svg"
    xmlns:xlink="http://www.w3.org/1999/xlink" x="0px" y="0px" xml:space="preserve"
    viewBox="0 0 303.28 447.18">
    <path d="M141.28,447.18c-4.16-2.92-8.84-5.31-12.4-8.84C87.86,397.6,46.99,356.7,6.1,315.82c-7.55-7.54-8.11-16.64-1.59-23.42
    c6.08-6.32,14.87-6.81,21.58-1.16c1.27,1.07,2.42,2.29,3.6,3.47c31.12,31.08,62.25,62.16,93.34,93.29c1.24,1.25,2.04,2.94,3.05,4.42
    c0.59-0.38,1.18-0.77,1.77-1.15c0-2.1,0-4.19,0-6.29c0-120.97,0-241.94,0-362.91c0-2.17-0.06-4.34,0.04-6.5
    c0.46-9.8,6.3-15.54,15.79-15.58c9.55-0.04,15.44,5.56,16.04,15.33c0.13,2.16,0.07,4.33,0.07,6.5c0,122.13,0,244.27,0,366.4
    c0,2.09,0,4.18,0,7.37c2.16-1.81,3.41-2.79,4.58-3.85c35.87-32.37,71.72-64.77,107.6-97.13c12.93-11.66,22.37-10.25,31.31,4.55
    c0,3.33,0,6.67,0,10c-1.72,1.98-3.25,4.19-5.19,5.92c-46.46,41.35-92.94,82.68-139.53,123.88c-3.65,3.23-8.17,5.49-12.28,8.2
    C144.62,447.18,142.95,447.18,141.28,447.18z"></path>
  </svg>

  <svg id="icon-arrow" xmlns="http://www.w3.org/2000/svg" viewBox="0 0 32 32">
    <path
      d="M 12.96875 4.28125 L 11.53125 5.71875 L 21.8125 16 L 11.53125 26.28125 L 12.96875 27.71875 L 23.96875 16.71875 L 24.65625 16 L 23.96875 15.28125 Z"
    />
  </svg>

  <svg id="icon_arrow_down" viewBox="0 0 24 24" xmlns="http://www.w3.org/2000/svg">
    <path d="M7.41 8.59L12 13.17l4.59-4.58L18 10l-6 6-6-6z" />
  </svg>

  <svg id="icon-arrow" viewBox="0 0 24 24">
    <path
      d="M60 32a4 4 0 0 1-4 4H18.283l4.42 4.051a4 4 0 0 1-5.406 5.898l-12-11a4 4 0 0 1 0-5.898l12-11a4 4 0 1 1 5.406 5.898L18.283 28H56a4 4 0 0 1 4 4z" />
  </svg>

  <svg id="icon-checkbox" viewBox="0 0 20 20">
    <path
      d="M7.629,14.566c0.125,0.125,0.291,0.188,0.456,0.188c0.164,0,0.329-0.062,0.456-0.188l8.219-8.221c0.252-0.252,0.252-0.659,0-0.911c-0.252-0.252-0.659-0.252-0.911,0l-7.764,7.763L4.152,9.267c-0.252-0.251-0.66-0.251-0.911,0c-0.252,0.252-0.252,0.66,0,0.911L7.629,14.566z"
    ></path>
  </svg>
  <svg id="icon_double_check" xmlns="http://www.w3.org/2000/svg" viewBox="0 0 20 20">
    <path
      d="M12.2 17.7c-.3 0-.5-.1-.7-.3l-4.2-4.2c-.4-.4-.4-1 0-1.4s1-.4 1.4 0l3.5 3.5L20 7.5c.4-.4 1-.4 1.4 0s.4 1 0 1.4l-8.5 8.5c-.1.2-.4.3-.7.3z"
    ></path>
    <path
      d="M7.2 17.7c-.3 0-.5-.1-.7-.3l-4.2-4.2c-.4-.4-.4-1 0-1.4s1-.4 1.4 0L7.9 16c.4.4.4 1 0 1.4-.1.2-.4.3-.7.3zm5.3-5.2c-.3 0-.5-.1-.7-.3-.4-.4-.4-1 0-1.4L15 7.5c.4-.4 1-.4 1.4 0s.4 1 0 1.4l-3.2 3.3c-.2.2-.4.3-.7.3z"></path>
  </svg>
  <svg id="icon_linkedin" xmlns="http://www.w3.org/2000/svg" viewBox="0 0 448 512">
    <path
      d="M100.28 448H7.4V148.9h92.88V448zM53.79 108.1c-29.69 
  0-53.79-24.11-53.79-53.8 0-29.69 24.1-53.8 
  53.79-53.8s53.79 24.11 53.79 53.8c0 
  29.69-24.1 53.8-53.79 53.8zM447.9 448h-92.4V302.4c0-34.7-.7-79.2-48.3-79.2
  -48.3 0-55.7 37.7-55.7 76.7V448h-92.4V148.9h89v40.8h1.3c12.4-23.5 
  42.7-48.3 87.9-48.3 94 0 111.3 61.9 111.3 
  142.3V448z" />
  </svg>

  <svg id="icon_x" xmlns="http://www.w3.org/2000/svg" viewBox="0 0 512 512">
    <path
      d="M389.2 48h70.6L305.6 218.9 487 464H345.6L234.7 318.6 108.1 464H37.5l164.7-183.9L26 48h144.9l99.9 132.5L389.2 48zM364.4 421.5h39.1L151.1 90.5h-42L364.4 421.5z" />
  </svg>


  <svg id="icon-map" xmlns="http://www.w3.org/2000/svg" viewBox="0 0 32 32">
    <path
      d="M 22 3 C 18.699 3 16 5.699 16 9 C 16 9.992 16.383 11.004 16.875 12.125 C 17.367 13.246 17.988 14.43425 18.625 15.53125 C 19.898 17.72625 21.1875 19.5625 21.1875 19.5625 L 22 20.75 L 22.8125 19.5625 C 22.8125 19.5625 24.101 17.72625 25.375 15.53125 C 26.012 14.43325 26.633 13.246 27.125 12.125 C 27.617 11.004 28 9.992 28 9 C 28 5.699 25.301 3 22 3 z M 11.96875 4.9375 L 4 8.34375 L 4 27.53125 L 12.03125 24.0625 L 20.03125 27.0625 L 28 23.65625 L 28 14.9375 C 27.363 16.1605 26.656 17.332 26 18.375 L 26 22.34375 L 21 24.46875 L 21 22.84375 L 19.53125 20.71875 C 19.37525 20.49175 19.191 20.2225 19 19.9375 L 19 24.5625 L 13 22.3125 L 13 7.4375 L 14.09375 7.84375 C 14.19175 7.16775 14.367 6.51625 14.625 5.90625 L 11.96875 4.9375 z M 22 5 C 24.219 5 26 6.781 26 9 C 26 9.387 25.7585 10.3005 25.3125 11.3125 C 24.8675 12.3245 24.238 13.47225 23.625 14.53125 C 22.809 15.93725 22.457 16.438953 22 17.126953 C 21.543 16.438953 21.191 15.93725 20.375 14.53125 C 19.762 13.47225 19.1335 12.3245 18.6875 11.3125 C 18.2425 10.3005 18 9.387 18 9 C 18 6.781 19.781 5 22 5 z M 11 7.5 L 11 22.34375 L 6 24.46875 L 6 9.65625 L 11 7.5 z"
    />
  </svg>
  <svg id="icon-mail" xmlns="http://www.w3.org/2000/svg" viewBox="0 0 32 32">
    <path
      d="M 3 8 L 3 26 L 29 26 L 29 8 Z M 7.3125 10 L 24.6875 10 L 16 15.78125 Z M 5 10.875 L 15.4375 17.84375 L 16 18.1875 L 16.5625 17.84375 L 27 10.875 L 27 24 L 5 24 Z"
    />
  </svg>
  <svg id="icon-home" xmlns="http://www.w3.org/2000/svg" viewBox="0 0 576 512">
    <path
      d="M575.8 255.5c0 18-15 32.1-32 32.1l-32 0 .7 160.2c0 2.7-.2 5.4-.5 8.1l0 16.2c0 22.1-17.9 40-40 40l-16 0c-1.1 0-2.2 0-3.3-.1c-1.4 .1-2.8 .1-4.2 .1L416 512l-24 0c-22.1 0-40-17.9-40-40l0-24 0-64c0-17.7-14.3-32-32-32l-64 0c-17.7 0-32 14.3-32 32l0 64 0 24c0 22.1-17.9 40-40 40l-24 0-31.9 0c-1.5 0-3-.1-4.5-.2c-1.2 .1-2.4 .2-3.6 .2l-16 0c-22.1 0-40-17.9-40-40l0-112c0-.9 0-1.9 .1-2.8l0-69.7-32 0c-18 0-32-14-32-32.1c0-9 3-17 10-24L266.4 8c7-7 15-8 22-8s15 2 21 7L564.8 231.5c8 7 12 15 11 24z" />
  </svg>
  <svg id="icon_email" xmlns="http://www.w3.org/2000/svg" viewBox="0 0 512 512">
    <path
      d="M64 112c-8.8 0-16 7.2-16 16l0 22.1L220.5 291.7c20.7 17 50.4 17 71.1 0L464 150.1l0-22.1c0-8.8-7.2-16-16-16L64 112zM48 212.2L48 384c0 8.8 7.2 16 16 16l384 0c8.8 0 16-7.2 16-16l0-171.8L322 328.8c-38.4 31.5-93.7 31.5-132 0L48 212.2zM0 128C0 92.7 28.7 64 64 64l384 0c35.3 0 64 28.7 64 64l0 256c0 35.3-28.7 64-64 64L64 448c-35.3 0-64-28.7-64-64L0 128z" />
  </svg>
  <svg id="icon-location" xmlns="http://www.w3.org/2000/svg" viewBox="0 0 384 512">
    <path
      d="M215.7 499.2C267 435 384 279.4 384 192C384 86 298 0 192 0S0 86 0 192c0 87.4 117 243 168.3 307.2c12.3 15.3 35.1 15.3 47.4 0zM192 128a64 64 0 1 1 0 128 64 64 0 1 1 0-128z" />
  </svg>
  <svg id="icon-instagram" xmlns="http://www.w3.org/2000/svg" viewBox="0 0 448 512">
    <path
      d="M224.1 141c-63.6 0-114.9 51.3-114.9 114.9s51.3 114.9 114.9 114.9S339 319.5 339 255.9 287.7 141 224.1 141zm0 189.6c-41.1 0-74.7-33.5-74.7-74.7s33.5-74.7 74.7-74.7 74.7 33.5 74.7 74.7-33.6 74.7-74.7 74.7zm146.4-194.3c0 14.9-12 26.8-26.8 26.8-14.9 0-26.8-12-26.8-26.8s12-26.8 26.8-26.8 26.8 12 26.8 26.8zm76.1 27.2c-1.7-35.9-9.9-67.7-36.2-93.9-26.2-26.2-58-34.4-93.9-36.2-37-2.1-147.9-2.1-184.9 0-35.8 1.7-67.6 9.9-93.9 36.1s-34.4 58-36.2 93.9c-2.1 37-2.1 147.9 0 184.9 1.7 35.9 9.9 67.7 36.2 93.9s58 34.4 93.9 36.2c37 2.1 147.9 2.1 184.9 0 35.9-1.7 67.7-9.9 93.9-36.2 26.2-26.2 34.4-58 36.2-93.9 2.1-37 2.1-147.8 0-184.8zM398.8 388c-7.8 19.6-22.9 34.7-42.6 42.6-29.5 11.7-99.5 9-132.1 9s-102.7 2.6-132.1-9c-19.6-7.8-34.7-22.9-42.6-42.6-11.7-29.5-9-99.5-9-132.1s-2.6-102.7 9-132.1c7.8-19.6 22.9-34.7 42.6-42.6 29.5-11.7 99.5-9 132.1-9s102.7-2.6 132.1 9c19.6 7.8 34.7 22.9 42.6 42.6 11.7 29.5 9 99.5 9 132.1s2.7 102.7-9 132.1z" />
  </svg>
  <svg viewBox="0 0 20 20" version="1.1" xmlns="http://www.w3.org/2000/svg"
    xmlns:xlink="http://www.w3.org/1999/xlink" fill="#000000">
    <g id="SVGRepo_bgCarrier" stroke-width="0"></g>
    <g id="SVGRepo_tracerCarrier" stroke-linecap="round" stroke-linejoin="round"></g>
    <g id="SVGRepo_iconCarrier">
      <title>linkedin [#161]</title>
      <desc>Created with Sketch.</desc>
      <defs> </defs>
      <g id="Page-1" stroke="none" stroke-width="1" fill="none" fill-rule="evenodd">
        <g id="Dribbble-Light-Preview" transform="translate(-180.000000, -7479.000000)"
          fill="#000000">
          <g id="icons" transform="translate(56.000000, 160.000000)">
            <path
              d="M144,7339 L140,7339 L140,7332.001 C140,7330.081 139.153,7329.01 137.634,7329.01 C135.981,7329.01 135,7330.126 135,7332.001 L135,7339 L131,7339 L131,7326 L135,7326 L135,7327.462 C135,7327.462 136.255,7325.26 139.083,7325.26 C141.912,7325.26 144,7326.986 144,7330.558 L144,7339 L144,7339 Z M126.442,7323.921 C125.093,7323.921 124,7322.819 124,7321.46 C124,7320.102 125.093,7319 126.442,7319 C127.79,7319 128.883,7320.102 128.883,7321.46 C128.884,7322.819 127.79,7323.921 126.442,7323.921 L126.442,7323.921 Z M124,7339 L129,7339 L129,7326 L124,7326 L124,7339 Z"
              id="icon-linkedin"> </path>
          </g>
        </g>
      </g>
    </g>
  </svg>
  <svg id="icon_arrow_right" xmlns="http://www.w3.org/2000/svg" viewBox="0 0 448 512">
    <path
      d="M438.6 278.6c12.5-12.5 12.5-32.8 0-45.3l-160-160c-12.5-12.5-32.8-12.5-45.3 0s-12.5 32.8 0 45.3L338.8 224 32 224c-17.7 0-32 14.3-32 32s14.3 32 32 32l306.7 0L233.4 393.4c-12.5 12.5-12.5 32.8 0 45.3s32.8 12.5 45.3 0l160-160z" />
  </svg>
  <svg version="1.1" id="icon_facebook" xmlns="http://www.w3.org/2000/svg"
    xmlns:xlink="http://www.w3.org/1999/xlink" x="0px" y="0px"
    enable-background="new 0 0 491.5 491.5" xml:space="preserve" viewBox="0 0 491.5 491.5">
    <path d="M283.122,122.174c0,5.24,0,22.319,0,46.583h83.424l-9.045,74.367h-74.379   c0,114.688,0,268.375,0,268.375h-98.726c0,0,0-151.653,0-268.375h-51.443v-74.367h51.443c0-29.492,0-50.463,0-56.302   c0-27.82-2.096-41.02,9.725-62.578C205.948,28.32,239.308-0.174,297.007,0.512c57.713,0.711,82.04,6.263,82.04,6.263   l-12.501,79.257c0,0-36.853-9.731-54.942-6.263C293.539,83.238,283.122,94.366,283.122,122.174z"></path>
  </svg>

  <svg id="icon-chevron-down" xmlns="http://www.w3.org/2000/svg" viewBox="0 0 512 512">
    <path
      d="M233.4 406.6c12.5 12.5 32.8 12.5 45.3 0l192-192c12.5-12.5 12.5-32.8 0-45.3s-32.8-12.5-45.3 0L256 338.7 86.6 169.4c-12.5-12.5-32.8-12.5-45.3 0s-12.5 32.8 0 45.3l192 192z" />
  </svg>
  <svg id="icon_phone" xmlns="http://www.w3.org/2000/svg" viewBox="0 0 512 512">
    <path
      d="M374.456 293.506c-9.7-10.1-21.4-15.5-33.8-15.5-12.3 0-24.1 5.3-34.2 15.4l-31.6 31.5c-2.6-1.4-5.2-2.7-7.7-4-3.6-1.8-7-3.5-9.9-5.3-29.6-18.8-56.5-43.3-82.3-75-12.5-15.8-20.9-29.1-27-42.6 8.2-7.5 15.8-15.3 23.2-22.8 2.8-2.8 5.6-5.7 8.4-8.5 21-21 21-48.2 0-69.2l-27.3-27.3c-3.1-3.1-6.3-6.3-9.3-9.5-6-6.2-12.3-12.6-18.8-18.6-9.7-9.6-21.3-14.7-33.5-14.7s-24 5.1-34 14.7l-.2.2-34 34.3c-12.8 12.8-20.1 28.4-21.7 46.5-2.4 29.2 6.2 56.4 12.8 74.2 16.2 43.7 40.4 84.2 76.5 127.6 43.8 52.3 96.5 93.6 156.7 122.7 23 10.9 53.7 23.8 88 26 2.1.1 4.3.2 6.3.2 23.1 0 42.5-8.3 57.7-24.8.1-.2.3-.3.4-.5 5.2-6.3 11.2-12 17.5-18.1 4.3-4.1 8.7-8.4 13-12.9 9.9-10.3 15.1-22.3 15.1-34.6 0-12.4-5.3-24.3-15.4-34.3l-54.9-55.1zm35.8 105.3c-.1 0-.1.1 0 0-3.9 4.2-7.9 8-12.2 12.2-6.5 6.2-13.1 12.7-19.3 20-10.1 10.8-22 15.9-37.6 15.9-1.5 0-3.1 0-4.6-.1-29.7-1.9-57.3-13.5-78-23.4-56.6-27.4-106.3-66.3-147.6-115.6-34.1-41.1-56.9-79.1-72-119.9-9.3-24.9-12.7-44.3-11.2-62.6 1-11.7 5.5-21.4 13.8-29.7l34.1-34.1c4.9-4.6 10.1-7.1 15.2-7.1 6.3 0 11.4 3.8 14.6 7l.3.3c6.1 5.7 11.9 11.6 18 17.9 3.1 3.2 6.3 6.4 9.5 9.7l27.3 27.3c10.6 10.6 10.6 20.4 0 31-2.9 2.9-5.7 5.8-8.6 8.6-8.4 8.6-16.4 16.6-25.1 24.4-.2.2-.4.3-.5.5-8.6 8.6-7 17-5.2 22.7l.3.9c7.1 17.2 17.1 33.4 32.3 52.7l.1.1c27.6 34 56.7 60.5 88.8 80.8 4.1 2.6 8.3 4.7 12.3 6.7 3.6 1.8 7 3.5 9.9 5.3.4.2.8.5 1.2.7 3.4 1.7 6.6 2.5 9.9 2.5 8.3 0 13.5-5.2 15.2-6.9l34.2-34.2c3.4-3.4 8.8-7.5 15.1-7.5 6.2 0 11.3 3.9 14.4 7.3l.2.2 55.1 55.1c10.3 10.2 10.3 20.7.1 31.3zM256.056 112.706c26.2 4.4 50 16.8 69 35.8s31.3 42.8 35.8 69c1.1 6.6 6.8 11.2 13.3 11.2.8 0 1.5-.1 2.3-.2 7.4-1.2 12.3-8.2 11.1-15.6-5.4-31.7-20.4-60.6-43.3-83.5s-51.8-37.9-83.5-43.3c-7.4-1.2-14.3 3.7-15.6 11s3.5 14.4 10.9 15.6zM473.256 209.006c-8.9-52.2-33.5-99.7-71.3-137.5s-85.3-62.4-137.5-71.3c-7.3-1.3-14.2 3.7-15.5 11-1.2 7.4 3.7 14.3 11.1 15.6 46.6 7.9 89.1 30 122.9 63.7 33.8 33.8 55.8 76.3 63.7 122.9 1.1 6.6 6.8 11.2 13.3 11.2.8 0 1.5-.1 2.3-.2 7.3-1.1 12.3-8.1 11-15.4z" />
  </svg>

  <svg id="icon_clock" xmlns="http://www.w3.org/2000/svg" viewBox="0 0 512 512">
    <path
      d="M221.647 0C99.433 0 0 99.433 0 221.647s99.433 221.647 221.647 221.647 221.647-99.433 221.647-221.647S343.861 0 221.647 0zm0 415.588c-106.941 0-193.941-87-193.941-193.941s87-193.941 193.941-193.941 193.941 87 193.941 193.941-87 193.941-193.941 193.941z"
      opacity="1" data-original="#000000" class="hovered-path"></path>
    <path d="M235.5 83.118h-27.706v144.265l87.176 87.176 19.589-19.589-79.059-79.059z"
      opacity="1" data-original="#000000" class="hovered-path"></path>
  </svg>

  <svg id="icon_business_money" xmlns="http://www.w3.org/2000/svg" viewBox="0 0 512 512">
    <path
      d="M488 144h-48a8 8 0 0 0-8 8v304a8 8 0 0 0 8 8h48a8 8 0 0 0 8-8V152a8 8 0 0 0-8-8Zm-8 304h-32V160h32ZM408 464a8 8 0 0 0 8-8V216a8 8 0 0 0-8-8h-48a8 8 0 0 0-8 8v240a8 8 0 0 0 8 8Zm-40-240h32v224h-32ZM328 464a8 8 0 0 0 8-8V272a8 8 0 0 0-8-8h-48a8 8 0 0 0-8 8v184a8 8 0 0 0 8 8Zm-40-184h32v168h-32ZM248 464a8 8 0 0 0 8-8V336a8 8 0 0 0-8-8h-48a8 8 0 0 0-8 8v120a8 8 0 0 0 8 8Zm-40-120h32v104h-32ZM168 464a8 8 0 0 0 8-8v-88a8 8 0 0 0-8-8h-48a8 8 0 0 0-8 8v88a8 8 0 0 0 8 8Zm-40-88h32v72h-32ZM88 464a8 8 0 0 0 8-8v-48a8 8 0 0 0-8-8H40a8 8 0 0 0-8 8v48a8 8 0 0 0 8 8Zm-40-48h32v32H48ZM216 144h16a8 8 0 0 0 0-16h-8v-8a8 8 0 0 0-16 0v9.376A24 24 0 0 0 216 176a8 8 0 0 1 0 16h-16a8 8 0 0 0 0 16h8v8a8 8 0 0 0 16 0v-9.376A24 24 0 0 0 216 160a8 8 0 0 1 0-16Z"></path>
    <path
      d="M488 48h-48a8 8 0 0 0 0 16h28.686l-112 112h-45.022a96.69 96.69 0 0 0 .336-8 96 96 0 1 0-113.677 94.362L164.687 296H104a8 8 0 0 0-5.657 2.343l-80 80a8 8 0 0 0 11.314 11.314L107.313 312H168a8 8 0 0 0 5.657-2.343l45.723-45.723A96.19 96.19 0 0 0 308.963 192H360a8 8 0 0 0 5.657-2.343L480 75.314V104a8 8 0 0 0 16 0V56a8 8 0 0 0-8-8ZM216 248a80 80 0 1 1 80-80 80.091 80.091 0 0 1-80 80Z"></path>
  </svg>
  <svg id="icon_star" xmlns="http://www.w3.org/2000/svg" viewBox="0 0 512 512">
    <g>
      <path
        d="M510.652 185.902a27.158 27.158 0 0 0-23.425-18.71l-147.774-13.419-58.433-136.77C276.71 6.98 266.898.494 255.996.494s-20.715 6.487-25.023 16.534l-58.434 136.746-147.797 13.418A27.208 27.208 0 0 0 1.34 185.902c-3.371 10.368-.258 21.739 7.957 28.907l111.7 97.96-32.938 145.09c-2.41 10.668 1.73 21.696 10.582 28.094 4.757 3.438 10.324 5.188 15.937 5.188 4.84 0 9.64-1.305 13.95-3.883l127.468-76.184 127.422 76.184c9.324 5.61 21.078 5.097 29.91-1.305a27.223 27.223 0 0 0 10.582-28.094l-32.937-145.09 111.699-97.94a27.224 27.224 0 0 0 7.98-28.927zm0 0" />
    </g>
  </svg>

  <svg id="icon_calender" xmlns="http://www.w3.org/2000/svg" viewBox="0 0 512 512">
    <g>
      <path
        d="M128 0c17.7 0 32 14.3 32 32l0 32 128 0 0-32c0-17.7 14.3-32 32-32s32 14.3 32 32l0 32 48 0c26.5 0 48 21.5 48 48l0 48L0 160l0-48C0 85.5 21.5 64 48 64l48 0 0-32c0-17.7 14.3-32 32-32zM0 192l448 0 0 272c0 26.5-21.5 48-48 48L48 512c-26.5 0-48-21.5-48-48L0 192zm64 80l0 32c0 8.8 7.2 16 16 16l32 0c8.8 0 16-7.2 16-16l0-32c0-8.8-7.2-16-16-16l-32 0c-8.8 0-16 7.2-16 16zm128 0l0 32c0 8.8 7.2 16 16 16l32 0c8.8 0 16-7.2 16-16l0-32c0-8.8-7.2-16-16-16l-32 0c-8.8 0-16 7.2-16 16zm144-16c-8.8 0-16 7.2-16 16l0 32c0 8.8 7.2 16 16 16l32 0c8.8 0 16-7.2 16-16l0-32c0-8.8-7.2-16-16-16l-32 0zM64 400l0 32c0 8.8 7.2 16 16 16l32 0c8.8 0 16-7.2 16-16l0-32c0-8.8-7.2-16-16-16l-32 0c-8.8 0-16 7.2-16 16zm144-16c-8.8 0-16 7.2-16 16l0 32c0 8.8 7.2 16 16 16l32 0c8.8 0 16-7.2 16-16l0-32c0-8.8-7.2-16-16-16l-32 0zm112 16l0 32c0 8.8 7.2 16 16 16l32 0c8.8 0 16-7.2 16-16l0-32c0-8.8-7.2-16-16-16l-32 0c-8.8 0-16 7.2-16 16z" />
    </g>
  </svg>
  <svg id="icon_tag" xmlns="http://www.w3.org/2000/svg" viewBox="0 0 512 512">
    <g>
      <path
        d="M0 80L0 229.5c0 17 6.7 33.3 18.7 45.3l176 176c25 25 65.5 25 90.5 0L418.7 317.3c25-25 25-65.5 0-90.5l-176-176c-12-12-28.3-18.7-45.3-18.7L48 32C21.5 32 0 53.5 0 80zm112 32a32 32 0 1 1 0 64 32 32 0 1 1 0-64z" />
    </g>
  </svg>
  <svg id="icon_send" xmlns="http://www.w3.org/2000/svg" viewBox="0 0 100 100">
    <g>
      <path
        d="M80.114 18.776c.683-.67.335-1.75-.555-1.397L18.652 41.602c-2.511.998-2.526 4.547-.023 5.566l21.2 8.633a3 3 0 0 0 3.234-.638zM45.443 57.03a3.007 3.007 0 0 0-.67 3.298c3.014 7.272 5.926 14.588 8.894 21.878 1.02 2.503 4.568 2.488 5.566-.023l24.223-60.907c.282-.71-.557-1.03-1.102-.495z" />
    </g>
  </svg>
  <svg id="icon_whatapp" xmlns="http://www.w3.org/2000/svg" viewBox="0 0 448 512">
    <path
      d="M380.9 97.1C339 55.1 283.2 32 223.9 32c-122.4 0-222 99.6-222 222 0 39.1 10.2 77.3 29.6 111L0 480l117.7-30.9c32.4 17.7 68.9 27 106.1 27h.1c122.3 0 224.1-99.6 224.1-222 0-59.3-25.2-115-67.1-157zm-157 341.6c-33.2 0-65.7-8.9-94-25.7l-6.7-4-69.8 18.3L72 359.2l-4.4-7c-18.5-29.4-28.2-63.3-28.2-98.2 0-101.7 82.8-184.5 184.6-184.5 49.3 0 95.6 19.2 130.4 54.1 34.8 34.9 56.2 81.2 56.1 130.5 0 101.8-84.9 184.6-186.6 184.6zm101.2-138.2c-5.5-2.8-32.8-16.2-37.9-18-5.1-1.9-8.8-2.8-12.5 2.8-3.7 5.6-14.3 18-17.6 21.8-3.2 3.7-6.5 4.2-12 1.4-32.6-16.3-54-29.1-75.5-66-5.7-9.8 5.7-9.1 16.3-30.3 1.8-3.7 .9-6.9-.5-9.7-1.4-2.8-12.5-30.1-17.1-41.2-4.5-10.8-9.1-9.3-12.5-9.5-3.2-.2-6.9-.2-10.6-.2-3.7 0-9.7 1.4-14.8 6.9-5.1 5.6-19.4 19-19.4 46.3 0 27.3 19.9 53.7 22.6 57.4 2.8 3.7 39.1 59.7 94.8 83.8 35.2 15.2 49 16.5 66.6 13.9 10.7-1.6 32.8-13.4 37.4-26.4 4.6-13 4.6-24.1 3.2-26.4-1.3-2.5-5-3.9-10.5-6.6z" />
  </svg>

  <svg id="icon_hamburger" xmlns="http://www.w3.org/2000/svg" viewBox="0 0 448 512">
    <path
      d="M0 96C0 78.3 14.3 64 32 64l384 0c17.7 0 32 14.3 32 32s-14.3 32-32 32L32 128C14.3 128 0 113.7 0 96zM0 256c0-17.7 14.3-32 32-32l384 0c17.7 0 32 14.3 32 32s-14.3 32-32 32L32 288c-17.7 0-32-14.3-32-32zM448 416c0 17.7-14.3 32-32 32L32 448c-17.7 0-32-14.3-32-32s14.3-32 32-32l384 0c17.7 0 32 14.3 32 32z" />
  </svg>

  <svg id="icon_business_money" xmlns="http://www.w3.org/2000/svg" viewBox="0 0 512 512">
    <path
      d="M488 144h-48a8 8 0 0 0-8 8v304a8 8 0 0 0 8 8h48a8 8 0 0 0 8-8V152a8 8 0 0 0-8-8Zm-8 304h-32V160h32ZM408 464a8 8 0 0 0 8-8V216a8 8 0 0 0-8-8h-48a8 8 0 0 0-8 8v240a8 8 0 0 0 8 8Zm-40-240h32v224h-32ZM328 464a8 8 0 0 0 8-8V272a8 8 0 0 0-8-8h-48a8 8 0 0 0-8 8v184a8 8 0 0 0 8 8Zm-40-184h32v168h-32ZM248 464a8 8 0 0 0 8-8V336a8 8 0 0 0-8-8h-48a8 8 0 0 0-8 8v120a8 8 0 0 0 8 8Zm-40-120h32v104h-32ZM168 464a8 8 0 0 0 8-8v-88a8 8 0 0 0-8-8h-48a8 8 0 0 0-8 8v88a8 8 0 0 0 8 8Zm-40-88h32v72h-32ZM88 464a8 8 0 0 0 8-8v-48a8 8 0 0 0-8-8H40a8 8 0 0 0-8 8v48a8 8 0 0 0 8 8Zm-40-48h32v32H48ZM216 144h16a8 8 0 0 0 0-16h-8v-8a8 8 0 0 0-16 0v9.376A24 24 0 0 0 216 176a8 8 0 0 1 0 16h-16a8 8 0 0 0 0 16h8v8a8 8 0 0 0 16 0v-9.376A24 24 0 0 0 216 160a8 8 0 0 1 0-16Z"></path>
    <path
      d="M488 48h-48a8 8 0 0 0 0 16h28.686l-112 112h-45.022a96.69 96.69 0 0 0 .336-8 96 96 0 1 0-113.677 94.362L164.687 296H104a8 8 0 0 0-5.657 2.343l-80 80a8 8 0 0 0 11.314 11.314L107.313 312H168a8 8 0 0 0 5.657-2.343l45.723-45.723A96.19 96.19 0 0 0 308.963 192H360a8 8 0 0 0 5.657-2.343L480 75.314V104a8 8 0 0 0 16 0V56a8 8 0 0 0-8-8ZM216 248a80 80 0 1 1 80-80 80.091 80.091 0 0 1-80 80Z"></path>
  </svg>

  <svg id="icon_flaticon" xmlns="http://www.w3.org/2000/svg" viewBox="0 0 64 64">
    <g>
      <path
        d="M50.63 26.226c-.13-1.394-.031-5.182 3.598-10.45a1 1 0 0 0-.116-1.274c-1.48-1.48-2.396-2.413-3.038-3.066-.845-.862-1.23-1.254-1.795-1.766a1.002 1.002 0 0 0-1.328-.013c-6.326 5.504-13.351 16.877-12.334 30.81.595 8.182 6.563 14.121 14.19 14.121 7.825 0 14.192-6.366 14.192-14.192 0-7.55-5.925-13.742-13.37-14.17zm-.824 26.362c-6.549 0-11.677-5.158-12.195-12.265-1.144-15.672 8.172-25.85 10.986-28.546.274.271.588.59 1.05 1.06.556.566 1.318 1.342 2.47 2.498-4.405 6.787-3.574 11.623-3.21 12.316.173.33.528.551.9.551 6.723 0 12.192 5.47 12.192 12.194 0 6.722-5.47 12.192-12.193 12.192zM15.114 26.226c-.13-1.39-.035-5.175 3.598-10.45a1 1 0 0 0-.116-1.274c-1.477-1.477-2.392-2.41-3.033-3.062-.848-.864-1.235-1.257-1.799-1.77a1.004 1.004 0 0 0-1.328-.014C6.111 15.16-.916 26.531.099 40.468c.598 8.181 6.566 14.12 14.192 14.12 7.827 0 14.194-6.366 14.194-14.192 0-7.551-5.926-13.744-13.371-14.17zm-.823 26.362c-6.547 0-11.678-5.158-12.198-12.266v.001c-1.14-15.674 8.175-25.851 10.99-28.546.275.271.59.591 1.052 1.063.556.566 1.317 1.34 2.467 2.495-4.405 6.788-3.574 11.623-3.21 12.315.173.33.528.552.9.552 6.723 0 12.193 5.47 12.193 12.194 0 6.722-5.47 12.192-12.194 12.192z" />
    </g>
  </svg>


</svg>